<?xml version="1.0" encoding="UTF-8" standalone="no"?>
<svg xmlns="http://www.w3.org/2000/svg" stroke-linecap="square" version="1.1" stroke-miterlimit="10" xmlns:xlink="http://www.w3.org/1999/xlink" viewBox="0.0 0.0 1000.0 1000.0" fill="none">
 <clipPath id="p.0">
  <path d="m0 0h1e3v1e3h-1e3v-1e3z"/>
 </clipPath>
 <g clip-path="url(#p.0)">
  <path fill-opacity="0" d="m0 0h1e3v1e3h-1e3z" fill="#000"/>
  <path d="m0 500c0-276.14 223.86-500 500-500 132.61 0 259.79 52.678 353.55 146.45 93.768 93.768 146.45 220.95 146.45 353.55 0 276.14-223.86 500-500 500s-500-223.86-500-500z" fill="#2ac1de"/>
  <path d="m281.72 428.08l219.4 483.56 219.4-483.56z" fill="#fff"/>
  <path d="m564.04 860.87l-159.69 41.953 9.5118 36.535 159.69-41.953z" fill="#2ac1de"/>
  <path d="m670 294.61c0-86.496-75.59-156.61-168.83-156.61-93.245 0-168.83 70.119-168.83 156.61 0 86.496 75.59 156.61 168.83 156.61 93.245 0 168.83-70.119 168.83-156.61z" fill="#fff"/>
  <path d="m732.68 413.13c0-56.855-103.69-102.94-231.59-102.94s-231.59 46.09-231.59 102.94c0 56.855 103.69 102.94 231.59 102.94s231.59-46.09 231.59-102.94z" fill="#2ac1de"/>
  <path d="m720.54 389.17c0-50.993-98.229-92.331-219.4-92.331s-219.4 41.338-219.4 92.331 98.229 92.331 219.4 92.331 219.4-41.338 219.4-92.331z" fill="#fff"/>
  <path d="m720.54 363.02h-438.8v29.165h438.8z" fill="#fff"/>
  <path d="m379.54 357.51c0-38.956-26.708-70.535-59.654-70.535-15.821 0-30.994 7.4314-42.181 20.659s-17.472 31.169-17.472 49.876c0 38.956 26.708 70.535 59.654 70.535s59.654-31.58 59.654-70.535z" fill="#fff"/>
  <path d="m739.77 363.94c0-42.504-26.708-76.961-59.654-76.961-15.821 0-30.994 8.1083-42.181 22.541s-17.472 34.008-17.472 54.419c0 42.504 26.708 76.961 59.654 76.961s59.654-34.456 59.654-76.961z" fill="#fff"/>
  <path d="m703.07 380.72c0-38.956-26.708-70.535-59.654-70.535-15.821 0-30.994 7.4314-42.181 20.659s-17.472 31.169-17.472 49.876c0 38.956 26.708 70.535 59.654 70.535s59.654-31.58 59.654-70.535z" fill="#fff"/>
  <path d="m703.07 402.11c0-38.956-20.976-70.535-46.85-70.535-12.426 0-24.342 7.4314-33.128 20.659-8.7861 13.228-13.722 31.169-13.722 49.876 0 38.956 20.976 70.535 46.85 70.535 25.875 0 46.85-31.58 46.85-70.535z" fill="#fff"/>
  <path d="m646.38 425.41c0-38.956-26.708-70.535-59.654-70.535-15.821 0-30.994 7.4314-42.181 20.659s-17.472 31.169-17.472 49.876c0 38.956 26.708 70.535 59.654 70.535s59.654-31.58 59.654-70.535z" fill="#fff"/>
  <path d="m505.92 425.41c0-38.956-26.708-70.535-59.654-70.535-15.821 0-30.994 7.4314-42.181 20.659s-17.472 31.169-17.472 49.876c0 38.956 26.708 70.535 59.654 70.535s59.654-31.58 59.654-70.535z" fill="#fff"/>
  <path d="m368.66 389.17c0-38.956-18.177-70.535-40.598-70.535-10.767 0-21.094 7.4314-28.707 20.659-7.6137 13.228-11.891 31.169-11.891 49.876 0 38.956 18.177 70.535 40.598 70.535 22.422 0 40.598-31.58 40.598-70.535z" fill="#fff"/>
  <path d="m441.51 413.12c0-38.956-26.08-70.535-58.252-70.535-15.449 0-30.266 7.4314-41.19 20.659s-17.062 31.169-17.062 49.876c0 38.956 26.08 70.535 58.252 70.535s58.252-31.58 58.252-70.535z" fill="#fff"/>
  <path d="m572.29 433.56c0-38.956-26.708-70.535-59.654-70.535-15.821 0-30.994 7.4314-42.181 20.659s-17.472 31.169-17.472 49.876c0 38.956 26.708 70.535 59.654 70.535s59.654-31.58 59.654-70.535z" fill="#fff"/>
 </g>
</svg>
